<?xml version="1.0" encoding="utf-8"?>
<!-- Generator: Adobe Illustrator 28.0.0, SVG Export Plug-In . SVG Version: 6.00 Build 0)  -->
<svg version="1.1" id="Layer_1" xmlns="http://www.w3.org/2000/svg" xmlns:xlink="http://www.w3.org/1999/xlink" x="0px" y="0px"
	 viewBox="0 0 2000 2000" style="enable-background:new 0 0 2000 2000;" xml:space="preserve">
<style type="text/css">
	.st0{opacity:0.25;}
	.st1{fill:#1D1029;}
	.st2{fill:url(#SVGID_1_);}
	.st3{fill:url(#SVGID_00000093888005173443086510000001122694572064793518_);}
	.st4{fill:url(#SVGID_00000018239336994967877770000002072544395653565328_);}
	.st5{fill:url(#SVGID_00000007417807051835797220000004590283441407473597_);}
	.st6{opacity:0.5;}
	.st7{fill:#FFFFFF;}
	.st8{fill:url(#SVGID_00000173857139776487762960000014865821343465386907_);}
	.st9{fill:url(#SVGID_00000182497445045431737850000007928830783445384358_);}
	.st10{fill:url(#SVGID_00000090295229876588276390000016561064326794607290_);}
	.st11{fill:url(#SVGID_00000150807210468359903760000002259339757793225118_);}
	.st12{fill:url(#SVGID_00000057860472577012439300000014975759093074670212_);}
	.st13{fill:url(#SVGID_00000085934039845754008230000009922114505711383979_);}
	.st14{fill:url(#SVGID_00000001651064200205723060000004033397920111378353_);}
	.st15{fill:url(#SVGID_00000067198530351264378820000000843068682721114514_);}
	.st16{fill:url(#SVGID_00000140698493622636188430000018079581703758613939_);}
	.st17{fill:url(#SVGID_00000062178019156530805770000016595037148702096032_);}
	.st18{fill:url(#SVGID_00000180368241869550436980000012380576282447972793_);}
	.st19{fill:url(#SVGID_00000054949366429696136900000005700360155356852916_);}
</style>
<rect x="-7" y="-7" class="st1" width="2014" height="2014"/>
<g>
	<g class="st0">
		<g>
			<path class="st1" d="M985.3,660.8L632.1,307.7h918.2c38.2,0,74.1,9,105.5,26.9l-326.2,326.2
				C1234.6,755.9,1080.4,755.9,985.3,660.8z"/>
			<path class="st1" d="M378.5,1612l-31.4-33.7c-87.6-87.6-87.6-231.2,0-321l184.1-184.1c89.8-87.6,87.6-231.2,0-321l-58.4-58.4
				c-83.1-80.8-85.3-195.3-33.7-278.4l396.1,396.1c94.9,94.9,94.9,248.9,0,343.8L378.5,1612z"/>
			<path class="st1" d="M1777.1,1452.6l-297-297c-95.1-95.1-95.1-249.3,0-344.4l282.7-282.7c6.9,2.9,7.4,3.1,14.3,5.9V1452.6z"/>
			<path class="st1" d="M562.6,1793.9l-33.7-31.4l456.7-456.7c94.9-94.9,248.9-94.9,343.8,0l337.7,337.7
				c-83.1,51.6-197.6,47.1-278.4-33.7c-44.9-42.7-101-65.1-159.4-65.1c-58.4,0-116.7,22.4-161.6,65.1l-184.1,184.1
				C796,1883.7,652.3,1883.7,562.6,1793.9z"/>
		</g>
	</g>
	<g>
		<path class="st7" d="M926.4,565.6L573.3,212.5h918.2c38.2,0,74.1,9,105.5,26.9l-326.2,326.2
			C1175.7,660.7,1021.5,660.7,926.4,565.6z"/>
		<path class="st7" d="M319.6,1516.8l-31.4-33.7c-87.6-87.6-87.6-231.2,0-321L472.3,978c89.8-87.6,87.6-231.2,0-321l-58.4-58.4
			c-83.1-80.8-85.3-195.3-33.7-278.4l396.1,396.1c94.9,94.9,94.9,248.9,0,343.8L319.6,1516.8z"/>
		<path class="st7" d="M1718.2,1357.4l-297-297c-95.1-95.1-95.1-249.3,0-344.4l282.7-282.7c6.9,2.9,7.4,3.1,14.3,5.9V1357.4z"/>
		<path class="st7" d="M503.7,1698.7l-33.7-31.4l456.7-456.7c94.9-94.9,248.9-94.9,343.8,0l337.7,337.7
			c-83.1,51.6-197.6,47.1-278.4-33.7c-44.9-42.7-101-65.1-159.4-65.1c-58.4,0-116.7,22.4-161.6,65.1l-184.1,184.1
			C737.2,1788.5,593.5,1788.5,503.7,1698.7z"/>
	</g>
</g>
</svg>
