<?xml version="1.0" encoding="utf-8"?>
<!-- Generator: Adobe Illustrator 28.0.0, SVG Export Plug-In . SVG Version: 6.00 Build 0)  -->
<svg version="1.1" id="Layer_1" xmlns="http://www.w3.org/2000/svg" xmlns:xlink="http://www.w3.org/1999/xlink" x="0px" y="0px"
	 viewBox="0 0 2000 2000" style="enable-background:new 0 0 2000 2000;" xml:space="preserve">
<style type="text/css">
	.st0{opacity:0.25;}
	.st1{fill:#1D1029;}
	.st2{fill:url(#SVGID_1_);}
	.st3{fill:url(#SVGID_00000079464585271886281300000012104619356737320077_);}
	.st4{fill:url(#SVGID_00000126296762423326794980000012696508372465337230_);}
	.st5{fill:url(#SVGID_00000127735496641564569020000015422094022396378006_);}
	.st6{opacity:0.5;}
	.st7{fill:#FFFFFF;}
	.st8{fill:url(#SVGID_00000128485263407437147390000000694795140746554037_);}
	.st9{fill:url(#SVGID_00000014622244752328359630000009357040023141518721_);}
	.st10{fill:url(#SVGID_00000175289834034643087580000010891313377841669566_);}
	.st11{fill:url(#SVGID_00000054972240389290311800000001621389447485039488_);}
	.st12{fill:url(#SVGID_00000001638272822476818150000012782749899726684598_);}
	.st13{fill:url(#SVGID_00000134940593253947579420000000496973253505376950_);}
	.st14{fill:url(#SVGID_00000042700018042473808770000012047514640293961116_);}
	.st15{fill:url(#SVGID_00000147196042124498722980000002174098314464426653_);}
	.st16{fill:url(#SVGID_00000006669718501599023710000016215548295239055254_);}
	.st17{fill:url(#SVGID_00000173125172616011731270000016161716153160207786_);}
	.st18{fill:url(#SVGID_00000125586790573245574000000014931240734496658049_);}
	.st19{fill:url(#SVGID_00000147928506570097206170000002041822090173581239_);}
</style>
<g>
	<g class="st0">
		<g>
			<path class="st1" d="M960.4,660.8L607.3,307.7h918.2c38.2,0,74.1,9,105.5,26.9l-326.2,326.2
				C1209.7,755.9,1055.5,755.9,960.4,660.8z"/>
			<path class="st1" d="M353.6,1612l-31.4-33.7c-87.6-87.6-87.6-231.2,0-321l184.1-184.1c89.8-87.6,87.6-231.2,0-321l-58.4-58.4
				c-83.1-80.8-85.3-195.3-33.7-278.4l396.1,396.1c94.9,94.9,94.9,248.9,0,343.8L353.6,1612z"/>
			<path class="st1" d="M1752.2,1452.6l-297-297c-95.1-95.1-95.1-249.3,0-344.4l282.7-282.7c6.9,2.9,7.4,3.1,14.3,5.9V1452.6z"/>
			<path class="st1" d="M537.7,1793.9l-33.7-31.4l456.7-456.7c94.9-94.9,248.9-94.9,343.8,0l337.7,337.7
				c-83.1,51.6-197.6,47.1-278.4-33.7c-44.9-42.7-101-65.1-159.4-65.1c-58.4,0-116.7,22.4-161.6,65.1l-184.1,184.1
				C771.2,1883.7,627.5,1883.7,537.7,1793.9z"/>
		</g>
	</g>
	<g>
		<path class="st7" d="M901.6,565.6L548.5,212.5h918.2c38.2,0,74.1,9,105.5,26.9l-326.2,326.2C1150.9,660.7,996.7,660.7,901.6,565.6
			z"/>
		<path class="st7" d="M294.8,1516.8l-31.4-33.7c-87.6-87.6-87.6-231.2,0-321L447.4,978c89.8-87.6,87.6-231.2,0-321l-58.4-58.4
			c-83.1-80.8-85.3-195.3-33.7-278.4l396.1,396.1c94.9,94.9,94.9,248.9,0,343.8L294.8,1516.8z"/>
		<path class="st7" d="M1693.4,1357.4l-297-297c-95.1-95.1-95.1-249.3,0-344.4l282.7-282.7c6.9,2.9,7.4,3.1,14.3,5.9V1357.4z"/>
		<path class="st7" d="M478.9,1698.7l-33.7-31.4l456.7-456.7c94.9-94.9,248.9-94.9,343.8,0l337.7,337.7
			c-83.1,51.6-197.6,47.1-278.4-33.7c-44.9-42.7-101-65.1-159.4-65.1c-58.4,0-116.7,22.4-161.6,65.1l-184.1,184.1
			C712.3,1788.5,568.6,1788.5,478.9,1698.7z"/>
	</g>
</g>
</svg>
