<?xml version="1.0" encoding="utf-8"?>
<!-- Generator: Adobe Illustrator 28.0.0, SVG Export Plug-In . SVG Version: 6.00 Build 0)  -->
<svg version="1.1" id="Layer_1" xmlns="http://www.w3.org/2000/svg" xmlns:xlink="http://www.w3.org/1999/xlink" x="0px" y="0px"
	 viewBox="0 0 2000 2000" style="enable-background:new 0 0 2000 2000;" xml:space="preserve">
<style type="text/css">
	.st0{opacity:0.25;}
	.st1{fill:#1D1029;}
	.st2{fill:url(#SVGID_1_);}
	.st3{fill:url(#SVGID_00000054245028072228073100000015975716295089995671_);}
	.st4{fill:url(#SVGID_00000162316075980556074200000011193854707853031048_);}
	.st5{fill:url(#SVGID_00000031911809323086522280000003727335382350444721_);}
	.st6{opacity:0.5;}
	.st7{fill:#FFFFFF;}
	.st8{fill:url(#SVGID_00000158014416493526372470000018259455874811694479_);}
	.st9{fill:url(#SVGID_00000070811972068079408610000004181252769036353422_);}
	.st10{fill:url(#SVGID_00000022520559789263883770000003447879764652428212_);}
	.st11{fill:url(#SVGID_00000081649704245322859030000004842546426041891510_);}
	.st12{fill:url(#SVGID_00000092426347783285857470000007545388203121545148_);}
	.st13{fill:url(#SVGID_00000109728598146310118040000013355368057658719671_);}
	.st14{fill:url(#SVGID_00000131339329194565905870000013772929986225915560_);}
	.st15{fill:url(#SVGID_00000098902732689764369420000009127462908279537044_);}
	.st16{fill:url(#SVGID_00000018235772274483648280000006592996079311890612_);}
	.st17{fill:url(#SVGID_00000068669888261305007830000012899778828619739283_);}
	.st18{fill:url(#SVGID_00000042700008293427829690000007265914985032758692_);}
	.st19{fill:url(#SVGID_00000048463610597324571320000008107780709909723266_);}
</style>
<g>
	<g class="st0">
		<g>
			<path class="st1" d="M978.1,661.2L625.3,308.5h917.2c38.1,0,74,9,105.4,26.9L1322,661.2C1227.1,756.2,1073,756.2,978.1,661.2z"/>
			<path class="st1" d="M371.9,1611.4l-31.4-33.6c-87.5-87.5-87.5-231,0-320.7l183.9-183.9c89.7-87.5,87.5-231,0-320.7l-58.3-58.3
				c-83-80.7-85.2-195.1-33.6-278.1l395.7,395.6c94.8,94.8,94.8,248.6,0,343.4L371.9,1611.4z"/>
			<path class="st1" d="M1769,1452.2l-296.7-296.7c-95-95-95-249,0-344l282.4-282.4c6.9,2.9,7.4,3.1,14.3,5.9V1452.2z"/>
			<path class="st1" d="M555.8,1793.1l-33.6-31.4l456.2-456.2c94.8-94.8,248.6-94.8,343.4,0l337.4,337.4
				c-83,51.6-197.3,47.1-278.1-33.6c-44.9-42.6-100.9-65-159.2-65c-58.3,0-116.6,22.4-161.5,65l-183.9,183.9
				C789,1882.8,645.5,1882.8,555.8,1793.1z"/>
		</g>
	</g>
	<g>
		<linearGradient id="SVGID_1_" gradientUnits="userSpaceOnUse" x1="566.5192" y1="425.3875" x2="1589.1296" y2="425.3875">
			<stop  offset="0" style="stop-color:#EC1B69"/>
			<stop  offset="1" style="stop-color:#F05B57"/>
		</linearGradient>
		<path class="st2" d="M919.3,566.2L566.5,213.4h917.2c38.1,0,74,9,105.4,26.9l-325.9,325.9C1168.3,661.1,1014.3,661.1,919.3,566.2z
			"/>
		
			<linearGradient id="SVGID_00000048484411529864399950000011772120120920029868_" gradientUnits="userSpaceOnUse" x1="216.111" y1="918.6722" x2="840.4346" y2="918.6722">
			<stop  offset="0" style="stop-color:#EC1B69"/>
			<stop  offset="1" style="stop-color:#F05B57"/>
		</linearGradient>
		<path style="fill:url(#SVGID_00000048484411529864399950000011772120120920029868_);" d="M313.1,1516.3l-31.4-33.6
			c-87.5-87.5-87.5-231,0-320.7l183.9-183.9c89.7-87.5,87.5-231,0-320.7l-58.3-58.3c-83-80.7-85.2-195.1-33.6-278.1l395.7,395.6
			c94.8,94.8,94.8,248.6,0,343.4L313.1,1516.3z"/>
		
			<linearGradient id="SVGID_00000049905722597950411010000008731898726775301820_" gradientUnits="userSpaceOnUse" x1="1342.2708" y1="895.5332" x2="1710.2233" y2="895.5332">
			<stop  offset="0" style="stop-color:#EC1B69"/>
			<stop  offset="1" style="stop-color:#F05B57"/>
		</linearGradient>
		<path style="fill:url(#SVGID_00000049905722597950411010000008731898726775301820_);" d="M1710.2,1357.1l-296.7-296.7
			c-95-95-95-249,0-344L1695.9,434c6.9,2.9,7.4,3.1,14.3,5.9V1357.1z"/>
		
			<linearGradient id="SVGID_00000076587385144543618550000010674225274251201180_" gradientUnits="userSpaceOnUse" x1="463.356" y1="1452.2366" x2="1600.3397" y2="1452.2366">
			<stop  offset="0" style="stop-color:#EC1B69"/>
			<stop  offset="1" style="stop-color:#F05B57"/>
		</linearGradient>
		<path style="fill:url(#SVGID_00000076587385144543618550000010674225274251201180_);" d="M497,1698l-33.6-31.4l456.2-456.2
			c94.8-94.8,248.6-94.8,343.4,0l337.4,337.4c-83,51.6-197.3,47.1-278.1-33.6c-44.9-42.6-100.9-65-159.2-65
			c-58.3,0-116.6,22.4-161.5,65L817.7,1698C730.2,1787.7,586.7,1787.7,497,1698z"/>
	</g>
</g>
</svg>
